<?xml version="1.0" standalone="no"?>
<!DOCTYPE svg PUBLIC "-//W3C//DTD SVG 20010904//EN"
 "http://www.w3.org/TR/2001/REC-SVG-20010904/DTD/svg10.dtd">
<svg version="1.0" xmlns="http://www.w3.org/2000/svg"
 width="1024.000000pt" height="1024.000000pt" viewBox="0 0 1024.000000 1024.000000"
 preserveAspectRatio="xMidYMid meet">

<g transform="translate(0.000000,1024.000000) scale(0.100000,-0.100000)"
fill="#000000" stroke="none">
<path d="M4830 7889 c-170 -14 -373 -47 -560 -91 -788 -182 -1563 -628 -2254
-1298 -353 -342 -822 -936 -975 -1235 -39 -76 -41 -84 -41 -171 0 -91 0 -91
48 -170 165 -274 555 -747 902 -1095 241 -241 421 -402 620 -553 680 -517
1349 -806 2110 -911 161 -23 522 -30 706 -16 547 44 1179 243 1679 530 149 86
422 267 580 386 458 344 960 855 1324 1348 196 265 301 447 301 521 0 44 -44
129 -155 297 -381 575 -954 1183 -1490 1579 -305 225 -670 438 -979 570 -334
142 -743 255 -1072 296 -153 18 -592 27 -744 13z m663 -374 c170 -19 286 -38
427 -71 126 -29 322 -85 317 -90 -2 -2 -55 9 -117 26 -62 16 -117 27 -121 24
-4 -2 -10 0 -14 6 -9 15 -25 12 -19 -4 3 -8 14 -13 25 -11 10 2 19 0 19 -5 0
-5 7 -7 15 -4 8 4 15 1 15 -5 0 -6 8 -8 18 -5 10 4 13 3 6 -3 -17 -13 -24 -42
-12 -49 7 -4 8 -3 4 4 -4 7 -1 12 8 12 10 0 13 -6 9 -17 -4 -11 -3 -14 6 -9
10 6 11 -1 7 -30 -2 -22 -2 -33 0 -26 11 25 23 11 17 -20 -4 -21 -3 -29 5 -24
6 4 9 13 6 20 -3 8 -1 17 5 21 11 6 16 -21 11 -60 -1 -11 -2 -35 -3 -52 0 -32
-10 -43 -20 -23 -3 6 -4 5 -3 -2 2 -7 12 -13 24 -12 18 0 21 -5 19 -35 -1 -22
2 -35 9 -34 7 1 9 -8 6 -24 -4 -21 -2 -25 12 -20 9 4 16 3 16 -1 0 -4 50 -25
110 -46 61 -21 109 -40 107 -42 -1 -2 -65 17 -142 42 -223 72 -489 135 -720
170 -169 27 -662 27 -845 1 -686 -98 -1299 -338 -1940 -760 -41 -27 -68 -43
-60 -34 8 8 70 51 138 96 78 52 122 88 122 99 -1 15 -3 14 -17 -3 -12 -16 -14
-16 -10 -3 3 10 2 20 -2 23 -5 3 -7 14 -4 25 3 11 0 20 -6 20 -6 0 -11 8 -11
19 0 22 -27 48 -38 36 -4 -4 -1 -10 6 -12 17 -7 15 -23 -4 -23 -8 0 -12 5 -9
10 3 6 1 10 -6 10 -7 0 -10 3 -6 6 10 10 -17 32 -33 27 -9 -3 -11 -2 -5 4 12
10 13 63 2 80 -5 7 0 16 13 23 11 6 20 16 20 22 0 6 8 20 18 31 17 19 16 20
-8 7 -40 -21 -215 -146 -330 -236 -58 -46 -121 -95 -140 -109 l-35 -27 35 32
c242 219 591 458 915 624 442 228 997 393 1410 419 167 11 648 6 778 -8z m662
-275 c3 -5 1 -10 -4 -10 -6 0 -11 5 -11 10 0 6 2 10 4 10 3 0 8 -4 11 -10z
m22 -72 c-5 -3 -16 -4 -24 -1 -10 4 -11 9 -2 19 8 10 14 11 24 1 8 -8 9 -14 2
-19z m1 -73 c-3 -3 -9 2 -12 12 -6 14 -5 15 5 6 7 -7 10 -15 7 -18z m16 -71
c3 -8 2 -12 -4 -9 -6 3 -10 10 -10 16 0 14 7 11 14 -7z m-1151 -361 c-13 -2
-33 -2 -45 0 -13 2 -3 4 22 4 25 0 35 -2 23 -4z m-123 -10 c-19 -2 -74 -13
-122 -24 -83 -20 -107 -36 -91 -61 3 -7 1 -8 -5 -4 -7 4 -12 15 -12 24 0 13
-2 13 -14 -3 -10 -14 -25 -19 -55 -18 -25 1 -39 -2 -36 -8 4 -5 10 -7 14 -4 5
2 13 -7 19 -20 9 -20 9 -23 -3 -18 -8 3 -17 -1 -20 -9 -4 -10 -16 -14 -33 -11
-15 1 -21 0 -14 -3 19 -9 14 -24 -9 -24 -14 0 -19 5 -16 13 3 8 -1 14 -9 14
-16 0 -19 -13 -4 -22 6 -4 7 -11 4 -17 -5 -7 -11 -2 -16 12 -8 22 -9 22 -28 5
-10 -9 -21 -29 -23 -44 -3 -22 -4 -22 -6 7 0 21 -5 31 -12 27 -6 -4 -8 -13 -5
-20 2 -7 -4 -21 -15 -31 -18 -16 -18 -18 -2 -38 18 -21 18 -21 -3 -3 -26 22
-36 22 -32 0 3 -20 -17 -24 -47 -10 l-20 10 20 -20 c11 -11 24 -18 29 -15 5 3
6 -1 1 -8 -4 -7 -2 -16 5 -20 9 -5 9 -9 1 -14 -6 -4 -11 -4 -11 1 0 4 -4 14
-9 22 -7 11 -15 7 -40 -20 -17 -18 -31 -37 -31 -41 0 -5 -12 -8 -27 -9 -24 0
-25 -2 -9 -8 18 -7 18 -8 3 -14 -9 -3 -25 -3 -34 0 -16 6 -16 5 -4 -10 12 -15
12 -17 -3 -11 -9 3 -16 1 -16 -5 0 -6 -5 -11 -11 -11 -5 0 -7 4 -4 10 4 6 -5
9 -19 8 -17 -2 -26 -8 -26 -20 0 -11 -9 -18 -27 -20 -25 -3 -25 -4 -11 -19 9
-9 13 -21 8 -28 -5 -9 -9 -6 -13 9 -4 16 -11 21 -22 16 -9 -3 -23 -6 -31 -6
-9 0 -12 -5 -9 -10 4 -6 11 -8 16 -5 5 4 6 -2 2 -11 -4 -11 -8 -13 -11 -6 -2
7 -13 12 -25 12 -18 0 -19 -2 -6 -12 8 -7 12 -12 10 -11 -2 2 -10 -2 -16 -7
-9 -8 -14 -4 -19 15 -4 14 -11 23 -16 20 -6 -4 -8 -10 -5 -15 3 -5 1 -11 -5
-15 -6 -4 -7 -11 -4 -17 4 -7 2 -8 -5 -4 -6 4 -20 -3 -31 -16 -11 -13 -29 -34
-41 -48 -18 -21 -17 -20 2 10 53 81 102 139 112 133 6 -3 7 -1 3 5 -15 24 162
186 303 277 185 119 482 224 631 222 37 0 38 -1 10 -4z m-2016 -79 c4 -9 4
-19 1 -22 -3 -3 -5 0 -5 7 0 7 -5 9 -10 6 -6 -4 -7 -11 -4 -17 4 -6 2 -8 -4
-5 -11 8 -5 47 8 47 4 0 11 -7 14 -16z m693 -71 c-256 -302 -401 -588 -481
-953 -68 -311 -65 -640 10 -920 175 -653 685 -1201 1309 -1409 653 -218 1352
-104 1890 308 223 170 462 463 593 726 123 247 210 578 213 808 1 67 16 172
18 126 1 -28 26 -46 37 -27 4 7 9 6 15 -3 6 -10 9 -7 9 11 l1 25 11 -25 c12
-31 3 -189 -18 -315 -69 -407 -240 -776 -492 -1062 -37 -42 -69 -70 -76 -66
-6 3 -8 2 -3 -2 10 -11 -43 -66 -56 -58 -6 3 -7 2 -4 -4 4 -5 -8 -23 -25 -39
-26 -25 -29 -26 -19 -6 6 12 16 22 20 22 5 0 8 11 6 25 -1 14 2 25 6 25 5 0 9
6 9 14 0 7 10 20 23 29 12 8 20 17 16 21 -3 3 -39 -28 -80 -70 -40 -41 -65
-72 -54 -68 11 4 17 4 14 0 -4 -4 -17 -9 -29 -11 -34 -7 -84 -56 -68 -68 9 -6
8 -7 -4 -3 -12 3 -43 -14 -88 -48 -218 -164 -514 -295 -807 -358 -98 -21 -133
-23 -393 -23 -272 0 -292 1 -435 29 -491 93 -781 241 -1095 556 -147 147 -243
270 -335 429 -44 74 -65 103 -52 67 8 -21 -21 -28 -32 -8 -7 11 -11 12 -11 4
0 -7 -5 -10 -11 -6 -8 4 -8 1 -1 -13 9 -16 8 -20 -5 -20 -9 0 -18 8 -20 18 -5
19 -57 31 -72 16 -6 -6 -8 -1 -4 14 6 21 4 22 -9 11 -14 -11 -16 -10 -11 10 5
19 3 21 -8 11 -17 -17 -32 -16 -26 0 4 10 -2 13 -19 9 -13 -2 -24 -9 -24 -14
0 -5 -7 -3 -15 6 -21 21 -19 27 10 22 14 -3 25 -1 25 4 0 4 -13 10 -29 12 -17
2 -28 1 -25 -4 3 -4 0 -8 -5 -8 -6 0 -11 7 -11 15 0 8 -2 15 -4 15 -2 0 -12 3
-22 7 -11 4 -15 3 -10 -5 3 -6 1 -14 -5 -18 -8 -4 -9 -3 -5 4 4 7 2 12 -4 12
-7 0 -10 7 -7 14 4 10 1 13 -7 10 -8 -3 -17 -1 -21 5 -3 6 -10 11 -15 11 -13
0 0 -32 19 -48 10 -8 5 -8 -15 2 -17 8 -35 12 -40 8 -5 -4 -3 0 4 8 16 18 16
31 -1 25 -6 -3 -18 4 -25 15 -10 17 -10 20 5 20 9 0 14 2 11 5 -8 9 -68 -7
-62 -16 3 -5 0 -9 -6 -9 -6 0 -8 10 -4 24 3 13 1 27 -5 30 -7 5 -8 1 -4 -10 5
-14 3 -15 -15 -5 -25 13 -27 22 -9 40 10 11 8 11 -12 1 -12 -6 -31 -10 -42 -7
-10 3 -20 0 -23 -7 -2 -6 -5 -3 -5 6 -1 11 -6 15 -16 12 -10 -4 -15 0 -15 12
0 11 -5 26 -11 34 -9 13 -10 12 -5 -2 3 -10 1 -20 -4 -23 -6 -4 -10 2 -10 12
0 15 -2 16 -10 3 -8 -12 -10 -11 -10 8 0 12 -4 22 -10 22 -15 0 -50 33 -44 42
3 4 0 8 -5 8 -6 0 -11 -7 -11 -15 0 -8 -8 -15 -17 -15 -16 0 -16 2 -3 11 10 7
11 12 4 15 -7 3 -10 15 -7 27 4 20 3 20 -7 5 -6 -10 -21 -18 -33 -18 -12 0
-17 4 -12 8 6 4 11 16 13 26 3 15 -2 13 -22 -10 l-26 -29 10 28 c11 31 6 47
-13 47 -7 0 -6 -4 3 -10 13 -8 12 -12 -4 -27 -10 -10 -16 -13 -12 -6 3 6 2 14
-4 18 -6 4 -8 11 -5 16 4 5 1 9 -5 9 -6 0 -8 5 -5 10 3 6 -1 10 -10 10 -12 0
-15 5 -11 18 5 14 3 13 -9 -3 -10 -12 -12 -21 -5 -23 5 -2 8 -8 4 -13 -10 -16
-22 -9 -26 16 -3 13 -2 22 2 20 4 -2 7 2 7 11 0 9 -7 12 -19 8 -20 -6 -25 11
-5 19 6 3 -1 6 -18 6 -23 1 -27 4 -15 11 12 7 8 10 -15 11 -16 0 -24 3 -17 6
23 9 13 30 -14 27 -19 -2 -24 1 -20 13 3 8 6 19 6 24 0 5 8 9 18 10 13 0 14 2
2 6 -8 3 -19 11 -23 17 -6 7 -7 4 -3 -6 3 -10 1 -18 -5 -18 -6 0 -9 10 -7 23
2 13 -5 31 -19 44 -12 12 -18 24 -12 27 5 2 4 3 -3 2 -7 -2 -13 -8 -13 -13 0
-6 -3 -15 -8 -19 -4 -4 -7 -2 -7 5 0 7 -3 10 -8 7 -4 -2 -13 7 -19 21 -11 22
-10 26 8 30 30 8 17 28 -19 28 -16 0 -28 3 -26 7 2 3 -1 8 -7 10 -7 2 -4 10 7
18 16 14 17 13 11 -2 -3 -10 -2 -18 3 -18 6 0 10 2 10 4 0 2 3 11 6 19 4 12
-2 15 -25 13 -17 -1 -31 1 -31 6 0 4 -7 8 -16 8 -9 0 -12 5 -8 11 14 23 12 79
-3 79 -8 0 -13 7 -11 18 2 9 9 17 15 17 7 0 18 6 24 12 10 10 8 12 -9 8 -16
-3 -20 1 -18 18 1 12 6 30 10 39 5 11 2 23 -8 33 -26 27 -18 31 9 5 14 -13 28
-20 32 -17 3 4 1 7 -6 7 -8 0 -11 7 -7 15 3 8 0 15 -7 15 -7 0 -4 5 6 11 9 5
17 19 17 29 0 13 5 18 15 14 10 -4 15 0 15 14 0 23 20 41 21 20 0 -9 2 -8 6 2
26 71 34 84 43 70 10 -17 25 -6 25 18 0 9 7 17 15 17 8 0 15 7 15 15 0 19 22
33 37 24 8 -5 9 2 5 22 -3 16 -4 23 0 15 4 -10 12 -6 30 15 20 24 26 26 34 14
9 -13 10 -12 6 2 -5 15 17 34 36 29 5 -1 6 8 2 19 -4 13 -2 20 7 20 8 0 24 9
36 20 24 23 37 26 26 8 -4 -7 4 -2 18 12 13 14 23 28 21 31 -1 4 6 9 17 12 11
3 20 12 20 20 0 11 7 15 20 12 11 -2 18 0 15 5 -3 5 4 11 15 15 11 3 19 9 19
13 -1 4 -1 14 0 22 1 12 3 12 10 2 6 -10 14 -6 34 17 14 17 28 31 32 31 8 0
64 40 96 70 36 33 49 43 84 65 17 11 48 34 69 52 21 18 43 30 48 27 4 -3 11 2
14 10 3 9 10 13 15 10 5 -3 9 3 10 13 0 11 3 13 6 5 3 -9 11 -6 26 10 35 37
93 78 110 78 10 0 17 6 18 13 0 9 2 9 6 0 3 -10 8 -9 20 2 8 8 19 12 25 9 7
-5 8 -2 3 6 -6 9 -1 10 16 6 24 -7 24 -7 4 10 -15 13 -16 15 -3 11 10 -3 27 4
42 18 13 12 27 20 30 17 3 -3 14 1 23 9 10 8 30 21 46 29 15 7 27 17 27 22 0
4 6 8 14 8 8 0 22 8 31 17 10 9 25 17 34 18 9 0 28 8 41 18 13 9 27 14 32 11
4 -3 8 0 8 6 0 5 16 18 35 27 19 9 35 21 35 26 0 5 7 7 15 3 9 -3 19 3 25 14
6 11 20 20 30 20 11 0 20 5 20 12 0 6 3 9 6 6 3 -3 19 7 37 23 17 16 33 29 35
29 2 0 -30 -39 -71 -87z m-677 -7 c0 -3 -4 -8 -10 -11 -5 -3 -10 -1 -10 4 0 6
5 11 10 11 6 0 10 -2 10 -4z m1574 -52 c3 -8 2 -12 -4 -9 -6 3 -10 -3 -10 -15
0 -12 -4 -18 -10 -15 -8 5 -8 28 -1 53 3 8 20 -1 25 -14z m46 1 c0 -8 -4 -15
-10 -15 -5 0 -7 7 -4 15 4 8 8 15 10 15 2 0 4 -7 4 -15z m-110 -51 c0 -8 -4
-12 -10 -9 -5 3 -10 10 -10 16 0 5 5 9 10 9 6 0 10 -7 10 -16z m20 -34 c0 -5
-5 -10 -11 -10 -5 0 -7 5 -4 10 3 6 8 10 11 10 2 0 4 -4 4 -10z m-1800 -74 c0
-2 -8 -10 -17 -17 -16 -13 -17 -12 -4 4 13 16 21 21 21 13z m1491 -110 c-7 -8
-10 -19 -7 -25 3 -5 -2 -7 -13 -4 -17 4 -17 6 3 28 22 25 37 26 17 1z m3450
-42 c10 -12 10 -39 0 -147 -7 -73 -18 -168 -24 -212 -11 -74 -14 -80 -37 -83
-17 -2 -40 10 -74 38 -26 22 -50 40 -51 40 -2 0 -134 -148 -294 -329 -311
-353 -313 -355 -385 -331 -33 11 -121 105 -415 448 -50 57 -57 62 -95 62 -23
0 -46 -4 -52 -8 -6 -4 -77 -90 -157 -192 -80 -102 -180 -228 -223 -280 -42
-52 -209 -258 -370 -456 -161 -199 -307 -373 -324 -388 -25 -20 -42 -26 -81
-26 -55 0 -58 2 -224 160 -49 47 -174 160 -277 251 -183 163 -228 192 -262
171 -12 -6 -165 -166 -635 -659 l-183 -192 -53 87 -52 87 47 55 c26 30 162
176 301 324 473 501 459 484 459 534 0 62 25 108 75 137 51 30 95 32 151 4 61
-29 89 -78 88 -152 l-1 -57 136 -123 c333 -300 420 -377 428 -377 5 0 70 75
143 168 284 354 670 842 756 957 l91 120 -15 35 c-9 22 -13 56 -10 92 14 188
264 256 372 100 24 -33 31 -56 34 -106 4 -64 4 -64 100 -182 52 -66 138 -170
190 -233 l95 -114 26 30 c164 187 437 506 439 513 2 4 -20 27 -48 51 -42 35
-50 48 -50 76 0 18 1 33 3 33 1 0 92 20 202 44 228 50 238 52 256 30z m-3634
-66 c-3 -8 -6 -5 -6 6 -1 11 2 17 5 13 3 -3 4 -12 1 -19z m68 12 c-3 -5 -12
-10 -18 -10 -7 0 -6 4 3 10 19 12 23 12 15 0z m2912 -65 c19 -42 34 -78 31
-80 -3 -3 -21 31 -41 75 -45 101 -38 105 10 5z m67 -163 c14 -37 26 -74 26
-82 -1 -12 -60 134 -60 147 0 16 13 -8 34 -65z m-5084 -876 c0 -2 -7 -7 -16
-10 -8 -3 -12 -2 -9 4 6 10 25 14 25 6z m77 -42 c-3 -3 -12 -4 -19 -1 -8 3 -5
6 6 6 11 1 17 -2 13 -5z m-17 -49 c0 -2 -9 -3 -19 -2 -11 0 -18 5 -15 9 4 6
34 0 34 -7z m74 -56 c-8 -14 -21 -11 -21 5 0 8 6 12 14 9 7 -3 10 -9 7 -14z
m16 -58 c0 -5 -7 -12 -16 -15 -14 -5 -15 -4 -4 9 14 17 20 19 20 6z m360 -291
c0 -5 -4 -10 -10 -10 -5 0 -10 5 -10 10 0 6 5 10 10 10 6 0 10 -4 10 -10z
m180 -106 c0 -14 -3 -14 -15 -4 -8 7 -15 14 -15 16 0 2 7 4 15 4 8 0 15 -7 15
-16z m-43 -10 c-3 -3 -12 -4 -19 -1 -8 3 -5 6 6 6 11 1 17 -2 13 -5z m153 -55
c0 -6 -4 -7 -10 -4 -5 3 -10 11 -10 16 0 6 5 7 10 4 6 -3 10 -11 10 -16z m257
-131 c-3 -8 -6 -5 -6 6 -1 11 2 17 5 13 3 -3 4 -12 1 -19z m227 -34 c4 -10 1
-14 -6 -12 -15 5 -23 28 -10 28 5 0 13 -7 16 -16z m3338 -486 c-7 -7 -12 -8
-12 -2 0 14 12 26 19 19 2 -3 -1 -11 -7 -17z"/>
<path d="M6103 7183 c0 -7 4 -13 8 -13 4 0 9 6 12 13 3 8 0 14 -7 14 -7 0 -13
-6 -13 -14z"/>
<path d="M6085 7080 c-3 -6 1 -7 9 -4 9 3 17 1 17 -5 3 -26 4 -30 12 -37 11
-11 9 14 -3 37 -12 21 -25 25 -35 9z"/>
<path d="M6130 7010 c0 -5 5 -10 11 -10 5 0 7 5 4 10 -3 6 -8 10 -11 10 -2 0
-4 -4 -4 -10z"/>
<path d="M2870 6761 c0 -7 -4 -9 -10 -6 -5 3 -18 1 -27 -4 -16 -9 -15 -11 7
-11 14 -1 19 -4 11 -7 -11 -5 -11 -7 0 -14 11 -7 11 -9 1 -9 -7 0 -10 -4 -7
-10 3 -5 1 -10 -6 -10 -16 0 -3 -13 16 -16 9 -1 12 6 10 25 -1 14 2 34 7 44 5
10 7 21 4 25 -3 3 -6 0 -6 -7z"/>
<path d="M2918 6678 c5 -5 16 -8 23 -6 8 3 3 7 -10 11 -17 4 -21 3 -13 -5z"/>
<path d="M2880 6670 c0 -7 -7 -10 -15 -6 -8 3 -15 1 -15 -4 0 -6 11 -10 25
-10 25 0 33 14 15 25 -5 3 -10 1 -10 -5z"/>
<path d="M2920 6599 c0 -5 5 -7 10 -4 6 3 10 8 10 11 0 2 -4 4 -10 4 -5 0 -10
-5 -10 -11z"/>
<path d="M2935 6550 c-3 -5 -1 -10 4 -10 6 0 11 5 11 10 0 6 -2 10 -4 10 -3 0
-8 -4 -11 -10z"/>
<path d="M4566 6534 c-6 -16 12 -18 32 -5 11 6 9 9 -7 14 -12 3 -22 -1 -25 -9z"/>
<path d="M4340 6376 c0 -2 7 -7 16 -10 8 -3 12 -2 9 4 -6 10 -25 14 -25 6z"/>
<path d="M4285 6320 c3 -5 8 -10 11 -10 2 0 4 5 4 10 0 6 -5 10 -11 10 -5 0
-7 -4 -4 -10z"/>
<path d="M4210 6269 c0 -5 5 -7 10 -4 6 3 10 8 10 11 0 2 -4 4 -10 4 -5 0 -10
-5 -10 -11z"/>
<path d="M4175 6250 c-3 -5 1 -10 10 -10 9 0 13 5 10 10 -3 6 -8 10 -10 10 -2
0 -7 -4 -10 -10z"/>
<path d="M1907 5184 c2 -7 11 -10 19 -7 19 7 18 10 -5 16 -13 3 -18 1 -14 -9z"/>
<path d="M7151 5134 c0 -11 3 -14 6 -6 3 7 2 16 -1 19 -3 4 -6 -2 -5 -13z"/>
<path d="M1920 5085 c0 -8 2 -15 4 -15 2 0 6 7 10 15 3 8 1 15 -4 15 -6 0 -10
-7 -10 -15z"/>
<path d="M1920 5050 c0 -8 9 -21 20 -28 17 -10 20 -10 20 4 0 8 -4 13 -9 9 -6
-3 -14 3 -20 12 -8 14 -10 15 -11 3z"/>
<path d="M2586 4434 c-4 -9 -4 -19 -1 -22 2 -3 7 3 11 12 4 9 4 19 1 22 -2 3
-7 -3 -11 -12z"/>
<path d="M6908 4188 c-22 -34 -42 -74 -31 -63 14 15 55 85 50 85 -3 0 -11 -10
-19 -22z"/>
<path d="M6834 4068 c-4 -7 -15 -24 -23 -38 -10 -15 -11 -21 -3 -16 13 7 46
66 38 66 -3 0 -8 -6 -12 -12z"/>
<path d="M6736 3922 l-19 -27 24 22 c12 12 21 24 18 27 -2 2 -13 -8 -23 -22z"/>
<path d="M6661 3829 c-25 -29 -39 -50 -32 -48 12 4 88 99 79 99 -1 0 -23 -23
-47 -51z"/>
<path d="M6585 3699 c-10 -15 3 -25 16 -12 7 7 7 13 1 17 -6 3 -14 1 -17 -5z"/>
</g>
</svg>
